<svg width="22" height="22" viewBox="0 0 22 22" fill="none" xmlns="http://www.w3.org/2000/svg">
<g id="eva:radio-button-off-outline">
<path id="Vector" d="M10.9999 20.1667C9.18693 20.1667 7.41465 19.6291 5.9072 18.6218C4.39974 17.6146 3.22483 16.1829 2.53103 14.5079C1.83722 12.833 1.65569 10.9898 2.00939 9.21169C2.36309 7.43353 3.23613 5.80018 4.51811 4.5182C5.80009 3.23622 7.43344 2.36318 9.2116 2.00948C10.9898 1.65578 12.8329 1.83732 14.5079 2.53112C16.1828 3.22492 17.6145 4.39984 18.6217 5.90729C19.629 7.41474 20.1666 9.18702 20.1666 11C20.1666 13.4312 19.2008 15.7627 17.4817 17.4818C15.7627 19.2009 13.4311 20.1667 10.9999 20.1667ZM10.9999 3.66668C9.54953 3.66668 8.1317 4.09677 6.92574 4.90257C5.71978 5.70837 4.77985 6.85368 4.22481 8.19367C3.66976 9.53366 3.52454 11.0081 3.8075 12.4307C4.09046 13.8532 4.78889 15.1599 5.81447 16.1855C6.84006 17.211 8.14673 17.9095 9.56926 18.1924C10.9918 18.4754 12.4663 18.3302 13.8063 17.7751C15.1463 17.2201 16.2916 16.2802 17.0974 15.0742C17.9032 13.8682 18.3333 12.4504 18.3333 11C18.3333 9.05509 17.5606 7.18983 16.1854 5.81456C14.8101 4.4393 12.9448 3.66668 10.9999 3.66668Z" fill="#252931"/>
</g>
</svg>
