<svg width="22" height="22" viewBox="0 0 22 22" fill="none" xmlns="http://www.w3.org/2000/svg">
<g id="fluent:delete-28-regular">
<path id="Vector" d="M9.03575 4.7143H12.9643C12.9643 4.19334 12.7574 3.69371 12.389 3.32534C12.0206 2.95696 11.521 2.75001 11 2.75001C10.4791 2.75001 9.97945 2.95696 9.61108 3.32534C9.2427 3.69371 9.03575 4.19334 9.03575 4.7143ZM7.85718 4.7143C7.85718 3.88076 8.1883 3.08136 8.7777 2.49196C9.3671 1.90256 10.1665 1.57144 11 1.57144C11.8336 1.57144 12.633 1.90256 13.2224 2.49196C13.8118 3.08136 14.1429 3.88076 14.1429 4.7143H19.0536C19.2099 4.7143 19.3598 4.77638 19.4703 4.8869C19.5808 4.99741 19.6429 5.1473 19.6429 5.30358C19.6429 5.45987 19.5808 5.60976 19.4703 5.72027C19.3598 5.83079 19.2099 5.89287 19.0536 5.89287H18.0243L17.0681 17.3667C16.9985 18.2013 16.6178 18.9794 16.0015 19.5466C15.3852 20.1137 14.5782 20.4285 13.7406 20.4286H8.25946C7.42189 20.4285 6.61492 20.1137 5.99857 19.5466C5.38223 18.9794 5.00153 18.2013 4.93196 17.3667L3.97575 5.89287H2.94646C2.79018 5.89287 2.64029 5.83079 2.52978 5.72027C2.41926 5.60976 2.35718 5.45987 2.35718 5.30358C2.35718 5.1473 2.41926 4.99741 2.52978 4.8869C2.64029 4.77638 2.79018 4.7143 2.94646 4.7143H7.85718ZM6.10661 17.2684C6.15154 17.8085 6.39781 18.312 6.79658 18.6791C7.19535 19.0461 7.71749 19.2499 8.25946 19.25H13.7406C14.2826 19.2499 14.8047 19.0461 15.2035 18.6791C15.6023 18.312 15.8485 17.8085 15.8935 17.2684L16.8426 5.89287H5.15825L6.10661 17.2684ZM9.23218 8.64287C9.38847 8.64287 9.53835 8.70496 9.64887 8.81547C9.75938 8.92598 9.82146 9.07587 9.82146 9.23216V15.9107C9.82146 16.067 9.75938 16.2169 9.64887 16.3274C9.53835 16.4379 9.38847 16.5 9.23218 16.5C9.07589 16.5 8.926 16.4379 8.81549 16.3274C8.70498 16.2169 8.64289 16.067 8.64289 15.9107V9.23216C8.64289 9.07587 8.70498 8.92598 8.81549 8.81547C8.926 8.70496 9.07589 8.64287 9.23218 8.64287ZM13.3572 9.23216C13.3572 9.07587 13.2951 8.92598 13.1846 8.81547C13.0741 8.70496 12.9242 8.64287 12.7679 8.64287C12.6116 8.64287 12.4617 8.70496 12.3512 8.81547C12.2407 8.92598 12.1786 9.07587 12.1786 9.23216V15.9107C12.1786 16.067 12.2407 16.2169 12.3512 16.3274C12.4617 16.4379 12.6116 16.5 12.7679 16.5C12.9242 16.5 13.0741 16.4379 13.1846 16.3274C13.2951 16.2169 13.3572 16.067 13.3572 15.9107V9.23216Z" fill="#252931" stroke="#252931" stroke-width="0.4"/>
</g>
</svg>
