<svg width="22" height="22" viewBox="0 0 22 22" fill="none" xmlns="http://www.w3.org/2000/svg">
<g id="ph:star-thin">
<path id="Vector" d="M19.3282 8.93646L19.3293 8.93554C19.3565 8.9124 19.376 8.8815 19.3852 8.84697L19.5785 8.8984L19.3852 8.84697C19.3944 8.81245 19.3928 8.77594 19.3807 8.74232L19.3781 8.73489L19.3782 8.73484C19.3679 8.70224 19.348 8.6735 19.3212 8.65235C19.2943 8.63119 19.2617 8.61861 19.2276 8.61624L19.2254 8.61609L13.734 8.1735L13.7301 8.17318L13.7301 8.17314C13.632 8.16329 13.5385 8.12696 13.4595 8.06806C13.3806 8.00924 13.3191 7.9301 13.2816 7.83909L19.3282 8.93646ZM19.3282 8.93646L15.1448 12.5458C15.0695 12.6108 15.0134 12.6953 14.9827 12.7899L15.173 12.8516L14.9827 12.79C14.952 12.8846 14.9479 12.9859 14.9708 13.0828L14.9708 13.0828M19.3282 8.93646L14.9708 13.0828M14.9708 13.0828L16.2487 18.4788L16.2487 18.4788M14.9708 13.0828L16.2487 18.4788M16.2487 18.4788L16.2495 18.482M16.2487 18.4788L16.2495 18.482M16.2495 18.482C16.2583 18.5165 16.2564 18.5528 16.244 18.5861C16.2317 18.6195 16.2095 18.6483 16.1804 18.6688L16.1804 18.6687M16.2495 18.482L16.1804 18.6687M16.1804 18.6687L16.1759 18.672M16.1804 18.6687L16.1759 18.672M16.1759 18.672C16.1492 18.692 16.1171 18.7033 16.0838 18.7046C16.0505 18.7058 16.0176 18.6969 15.9895 18.679L15.987 18.6775M16.1759 18.672L15.987 18.6775M15.987 18.6775L11.2855 15.7858M15.987 18.6775L11.2855 15.7858M11.2855 15.7858C11.1997 15.7329 11.1009 15.7048 11.0001 15.7048C10.8992 15.7048 10.8004 15.7329 10.7146 15.7858L10.7148 15.7857L11.2855 15.7858ZM2.68315 7.53503L2.68244 7.53509C2.43327 7.55625 2.19589 7.6505 2.00008 7.80603C1.80426 7.96156 1.65872 8.17144 1.5817 8.40935C1.50468 8.64726 1.49962 8.90261 1.56715 9.14339C1.63468 9.38417 1.77179 9.59965 1.96129 9.76281L5.89532 13.1561L4.69336 18.225C4.69325 18.2255 4.69313 18.2259 4.69302 18.2264C4.63216 18.4698 4.64528 18.7259 4.73072 18.9618C4.81633 19.1982 4.97062 19.4036 5.17379 19.5517C5.37696 19.6997 5.61975 19.7837 5.87099 19.7928C6.12207 19.8019 6.37015 19.7358 6.58342 19.603C6.58355 19.6029 6.58369 19.6029 6.58382 19.6028L11.0001 16.8869L15.4153 19.6021C15.4156 19.6024 15.416 19.6026 15.4164 19.6028C15.6279 19.7361 15.8747 19.8025 16.1246 19.7932C16.3741 19.7839 16.615 19.6995 16.8159 19.5512C17.0215 19.4052 17.1783 19.2007 17.266 18.9642C17.3538 18.7275 17.3681 18.4697 17.3071 18.2247C17.307 18.2243 17.3069 18.2239 17.3068 18.2236L16.1048 13.1518L20.0377 9.75952C20.0379 9.75934 20.0381 9.75915 20.0383 9.75897C20.2299 9.59636 20.3683 9.38004 20.4357 9.13794C20.5029 8.89615 20.4962 8.63978 20.4164 8.40187C20.3407 8.16408 20.1955 7.95441 19.9995 7.7999C19.8033 7.64524 19.5652 7.55295 19.316 7.53496C19.3157 7.53493 19.3154 7.53491 19.315 7.53488L14.1563 7.11526L12.1682 2.30181C12.0729 2.07029 11.911 1.8723 11.7031 1.73296C11.4951 1.59363 11.2504 1.51924 11.0001 1.51924C10.7497 1.51924 10.505 1.59363 10.2971 1.73296C10.0891 1.8723 9.92721 2.07029 9.83198 2.30181L7.84379 7.11526L2.68315 7.53503ZM11.1658 2.71722L13.2815 7.83873L8.26591 8.17351L8.25007 7.97414L8.26631 8.17348L8.26617 8.17349C8.36605 8.16551 8.46179 8.13008 8.54281 8.07111C8.6239 8.01209 8.68708 7.9318 8.72538 7.83911L8.72539 7.83909L10.8412 2.71722L10.8412 2.71722L10.8421 2.71501C10.855 2.68272 10.8772 2.65505 10.906 2.63555C10.9348 2.61605 10.9687 2.60563 11.0035 2.60563C11.0383 2.60563 11.0722 2.61605 11.101 2.63555C11.1298 2.65505 11.1521 2.68272 11.1649 2.71501L11.1649 2.71501L11.1658 2.71722ZM6.8553 12.5458L6.72468 12.6973L6.85533 12.5458L6.8553 12.5458Z" fill="#252931" stroke="#252931" stroke-width="0.4"/>
</g>
</svg>
